<svg xmlns="http://www.w3.org/2000/svg" width="29" height="20" viewBox="0 0 29 20">
    <g fill="none">
        <g fill="#FFF">
            <path d="M3.328 3.75L.14 9.99l.965 1.787c1.498-.402 3.335-.697 5.37-.852l.635-1.3-2.995-5.873c.803-.177 1.402-.892 1.402-1.747 0-.99-.802-1.792-1.79-1.792-.987 0-1.79.802-1.79 1.792-.002.853.593 1.565 1.39 1.745zM15.377 3.752l-2.992 5.856.64 1.314c2.037.155 3.873.45 5.37.85l.955-1.774-3.188-6.248c.798-.18 1.393-.893 1.393-1.745 0-.99-.8-1.792-1.79-1.792s-1.79.802-1.79 1.792c0 .855.6 1.57 1.402 1.748z" transform="translate(4.5)"/>
        </g>
        <path fill="#FFF" d="M26.085.71c-1.29 0-2.34 1.048-2.34 2.34 0 1.29 1.05 2.335 2.34 2.335.087 0 .175-.005.262-.013l-6.052 11.226-5.47-11.215c-.18.04-.367.062-.557.062-.2 0-.393-.022-.575-.067 0 0 .235-.46.347-.708.15-.34.273-.34.438-.002.122.244.325.66.347.71 1.128-.256 1.968-1.266 1.968-2.47 0-1.4-1.133-2.533-2.535-2.533-1.398 0-2.53 1.135-2.53 2.533 0 1.2.835 2.204 1.96 2.467L8.21 16.602 2.152 5.375c.085.008.175.013.263.013 1.292 0 2.338-1.045 2.338-2.335 0-1.293-1.048-2.34-2.338-2.34-1.292 0-2.34 1.047-2.34 2.34 0 .974.6 1.812 1.45 2.162V4.71s.02-.45.253-.025c.232.42.374.695.374.695-.22-.022-.43-.082-.627-.16v10.957h.003c.002 1.293 3.8 3.61 12.717 3.61 8.92 0 12.73-2.314 12.732-3.61l-.005-10.954c-.195.077-.402.135-.622.157 0 0 .142-.275.375-.695.232-.422.25.025.25.025v.5c.848-.353 1.445-1.185 1.445-2.16.002-1.292-1.045-2.34-2.335-2.34z"/>
        <path fill="#FFF" d="M26.98 5.21v-.5s-.018-.45-.25-.025c-.233.42-.375.695-.375.695.22-.022.425-.08.622-.157v-.008c0-.002 0-.005.003-.005z"/>
        <path fill="#EC7700" d="M14.825 5.383s0-.003 0 0c.003 0 0-.003 0-.005h-.002l.002.005z"/>
        <path fill="#FFF" d="M14.04 4.67c-.112.248-.347.708-.347.708.184.045.375.067.575.067.19 0 .377-.022.557-.063l-.002-.004h.002c-.022-.05-.225-.466-.348-.71-.165-.34-.287-.34-.437.002zM1.778 4.683c-.233-.423-.253.024-.253.024v.511c.198.077.408.135.627.16 0 0-.142-.276-.375-.696z"/>
    </g>
</svg>
