<svg xmlns="http://www.w3.org/2000/svg" width="24" height="24" viewBox="0 0 24 24">
    <g fill="none" fill-rule="evenodd">
        <path d="M0 0h24v24H0z"/>
        <g fill="#6F3C2F">
            <path d="M3.078 4.012h.493c.07 0 .109.054.109.187s-.01.705-.01.984c0 .28.318 2.821 2.262 2.821 1.238 0 1.964-1.224 2.172-2.222.035-.22.06-.432.269-.432h.755c.075 0 .15.046.15.2 0 .152-.02.917.06 1.41.079.492.695 2.688 2.788 2.688.92 0 2.439-.752 2.677-3.177.03-.45-.06-.988.15-.988h.738c.137 0 .247.158.253.34.015.471.641 2.288 2.242 2.288s2.536-2.182 2.118-3.979h.477c.11 0 .219.027.219.226 0 .2-.298 3.872-.328 4.245-.03.373-.15 3.154-.16 3.34-.01.186-.044.36-.203.36H3.864c-.105 0-.261-.004-.269-.373-.007-.37-.432-5.842-.462-6.108a70.064 70.064 0 0 1-.12-1.497c-.007-.12-.049-.313.065-.313M4 16.302h16a1 1 0 1 0 0-2H4a1 1 0 0 0 0 2zM4 20.302h16a1 1 0 1 0 0-2H4a1 1 0 0 0 0 2z"/>
        </g>
    </g>
</svg>
